<svg xmlns="http://www.w3.org/2000/svg" viewBox="0 0 20 23">
  <g clip-path="url(#a)">
    <path
      d="m11.4955 19.8705-.991.9911c-.4197.4196-1.09824.4196-1.51342 0L.312505 12.1875c-.419644-.4197-.419644-1.0982 0-1.5134L8.99108 1.99552c.41965-.41964 1.09822-.41964 1.51342 0l.991.99107c.4242.42411.4152 1.11607-.0178 1.53125l-5.37948 5.125H18.9286c.5937 0 1.0714.47766 1.0714 1.07146v1.4285c0 .5938-.4777 1.0715-1.0714 1.0715H6.09822l5.37948 5.125c.4375.4151.4464 1.1071.0178 1.5312Z"
    />
  </g>
  <defs>
    <clipPath id="a">
      <path fill="#fff" d="M0 0h20v22.8571H0z" />
    </clipPath>
  </defs>
</svg>
