<svg xmlns="http://www.w3.org/2000/svg" fill="none" viewBox="0 0 414 736"><g fill-opacity=".16" clip-path="url(#a)"><path fill="url(#b)" d="m162.705 200.623 213.86 75.732c20.825 7.374 43.684-3.529 51.058-24.354l75.732-213.8596c7.374-20.8242-3.529-43.68366-24.353-51.0579l-213.86-75.7318c-20.825-7.3742-43.684 3.5291-51.058 24.3534L138.352 149.565c-7.374 20.824 3.529 43.684 24.353 51.058Z"/><path fill="url(#c)" d="M278.424 675.528 143.475 493.154c-13.141-17.758-38.189-21.502-55.9474-8.361L-94.8458 619.742c-17.7582 13.141-21.5022 38.189-8.3612 55.947L31.7421 858.063c13.1404 17.758 38.1888 21.502 55.9471 8.361L270.063 731.475c17.758-13.141 21.501-38.189 8.361-55.947Z"/></g><defs><linearGradient id="b" x1="-37.8156" x2="372.072" y1="869.868" y2="-50.7822" gradientUnits="userSpaceOnUse"><stop/><stop offset="1" stop-opacity="0"/></linearGradient><linearGradient id="c" x1="818.9" x2="-35.7329" y1="232.829" y2="766.876" gradientUnits="userSpaceOnUse"><stop/><stop offset="1" stop-opacity="0"/></linearGradient><clipPath id="a"><path fill="#fff" d="M0 0h414v736H0z"/></clipPath></defs></svg>