<svg xmlns="http://www.w3.org/2000/svg" fill="none" viewBox="0 0 168 208"><g filter="url(#a)"><rect width="160" height="200" x="4" fill="#3B185F" rx="8"/><rect width="160" height="200" x="4" fill="url(#b)" rx="8"/></g><path fill="#F5F5F5" fill-opacity=".08" d="M56.8679 63.5822c5.0468 5.0468 13.5382 4.7617 18.9357-.6358 5.3974-5.3974 5.6825-13.8889.6357-18.9357-5.0468-5.0468-13.5383-4.7617-18.9357.6357-5.3975 5.3975-5.6825 13.889-.6357 18.9358Zm64.0501 64.0498c5.047 5.047 13.538 4.762 18.936-.636 5.397-5.397 5.682-13.888.635-18.935-5.047-5.047-13.538-4.762-18.935.635-5.398 5.398-5.683 13.889-.636 18.936Zm-.318 9.468-9.15-9.15c-2.516-2.516-5.875-3.704-9.292-3.604 2.383 9.141.371 19.331-5.9904 27.464l9.4364 9.436c2.53 2.531 6.761 2.389 9.467-.317l4.893-4.893c5.398-5.398 5.683-13.889.636-18.936ZM84 100.5c8.8498 8.85 23.673 8.352 33.137-1.1125 9.465-9.4646 9.963-24.2877 1.113-33.1375-8.85-8.8497-23.6729-8.3521-33.1375 1.1125C75.6479 76.8271 75.1502 91.6502 84 100.5Zm6.0871 15.873-1.1866-1.187c-4.5028-1.445-8.7228-3.83-12.2398-7.347-3.517-3.517-5.8879-7.722-7.3469-12.2395l-1.1867-1.1866c-9.0928-9.0929-24.3597-8.5803-34.0842 1.1442l-4.4036 4.4036c-4.0519 4.0523-4.2654 10.4133-.4768 14.2013l41.175 41.175c3.7887 3.789 10.1499 3.576 14.2018-.476l4.4036-4.404c9.7245-9.724 10.2371-24.991 1.1442-34.084ZM60.1539 82.3419c.1-3.4168-1.0876-6.7756-3.6039-9.2919L47.4 63.9c-5.0468-5.0468-13.5383-4.7617-18.9357.6357l-4.8928 4.8929c-2.7064 2.7063-2.8485 6.9373-.3179 9.4678l9.4216 9.4217c8.1483-6.3469 18.338-8.3587 27.4787-5.9762Z"/><defs><linearGradient id="b" x1="164" x2="3.99999" y1=".00000763" y2="200" gradientUnits="userSpaceOnUse"><stop stop-color="#A12568"/><stop offset="1" stop-color="#A12568" stop-opacity="0"/></linearGradient><filter id="a" width="168" height="208" x="0" y="0" color-interpolation-filters="sRGB" filterUnits="userSpaceOnUse"><feFlood flood-opacity="0" result="BackgroundImageFix"/><feColorMatrix in="SourceAlpha" result="hardAlpha" values="0 0 0 0 0 0 0 0 0 0 0 0 0 0 0 0 0 0 127 0"/><feOffset dy="4"/><feGaussianBlur stdDeviation="2"/><feComposite in2="hardAlpha" operator="out"/><feColorMatrix values="0 0 0 0 0 0 0 0 0 0 0 0 0 0 0 0 0 0 0.25 0"/><feBlend in2="BackgroundImageFix" result="effect1_dropShadow"/><feBlend in="SourceGraphic" in2="effect1_dropShadow" result="shape"/></filter></defs></svg>