<svg xmlns="http://www.w3.org/2000/svg" fill="none" viewBox="0 0 169 208"><g filter="url(#a)"><rect width="160" height="200" x="4.99829" y="-.00085449" fill="#3B185F" rx="8"/><rect width="160" height="200" x="4.99829" y="-.00085449" fill="url(#b)" rx="8"/></g><path fill="#F5F5F5" fill-opacity=".08" d="m149.615 117.901-2.607 2.607c-.346.346-.814.541-1.301.543-.487.001-.954-.191-1.298-.534l-3.885-3.886-1.956 1.955c-1.079 1.08-2.825 1.086-3.898.013L71.2074 55.1361c-1.0729-1.0728-1.0672-2.8182.0126-3.8981l1.9554-1.9553-3.8855-3.8855c-.3435-.3435-.5356-.8103-.534-1.2976.0016-.4874.1967-.9554.5424-1.3011l2.6071-2.6072c.2579-.2579.586-.434.9428-.506.3568-.072.7263-.0367 1.0617.1014l51.8991 23.2204c.449.185.805.5413.99.9905l23.221 51.8994c.138.335.173.704.101 1.061-.072.357-.248.685-.506.943Zm-53.4211 45.65L26.2552 93.6125c-2.1459-2.1459-5.6363-2.1346-7.7961.0252l-2.6072 2.6072c-.3457.3457-.5408.8137-.5424 1.3011-.0016.4873.1905.9541.534 1.2976l75.1193 75.1194c.3435.343.8103.536 1.2977.534.4873-.002.9554-.197 1.3011-.542l2.6071-2.608c2.1599-2.159 2.1712-5.65.0252-7.796ZM74.4285 63.5715 43.1428 94.8572l-5.8282-5.8282c-1.0729-1.0729-2.8183-1.0673-3.8981.0126l-3.259 3.2589 67.3484 67.3485 3.2591-3.259c1.08-1.08 1.085-2.825.012-3.898l-5.8278-5.828 31.2858-31.286-10.361-10.361-31.286 31.285-10.3613-10.361 31.2853-31.2856-10.3609-10.3613L63.8654 115.58l-10.3613-10.362 31.2857-31.2852-10.3613-10.3613Z"/><defs><linearGradient id="b" x1="164.998" x2="4.99828" y1="-.00084686" y2="199.999" gradientUnits="userSpaceOnUse"><stop stop-color="#A12568"/><stop offset="1" stop-color="#A12568" stop-opacity="0"/></linearGradient><filter id="a" width="168" height="208" x=".998291" y="-.00085449" color-interpolation-filters="sRGB" filterUnits="userSpaceOnUse"><feFlood flood-opacity="0" result="BackgroundImageFix"/><feColorMatrix in="SourceAlpha" result="hardAlpha" values="0 0 0 0 0 0 0 0 0 0 0 0 0 0 0 0 0 0 127 0"/><feOffset dy="4"/><feGaussianBlur stdDeviation="2"/><feComposite in2="hardAlpha" operator="out"/><feColorMatrix values="0 0 0 0 0 0 0 0 0 0 0 0 0 0 0 0 0 0 0.25 0"/><feBlend in2="BackgroundImageFix" result="effect1_dropShadow"/><feBlend in="SourceGraphic" in2="effect1_dropShadow" result="shape"/></filter></defs></svg>