<svg xmlns="http://www.w3.org/2000/svg" fill="none" viewBox="0 0 169 208"><g filter="url(#a)"><rect width="160" height="200" x="4.99829" y="-.00085449" fill="#3B185F" rx="8"/><rect width="160" height="200" x="4.99829" y="-.00085449" fill="url(#b)" rx="8"/></g><path fill="#F5F5F5" fill-opacity=".08" d="m60.0357 129.321-5.3571-5.357c-.7104-.71-1.6777-1.105-2.6891-1.099-1.0113.007-1.9839.415-2.7038 1.135l-5.4286 5.429c-.7198.719-1.128 1.692-1.1347 2.703-.0067 1.012.3886 1.979 1.099 2.689l5.3572 5.358c.7104.71 1.6776 1.105 2.689 1.099 1.0114-.007 1.984-.415 2.7038-1.135L60 134.714c.7199-.72 1.1281-1.692 1.1348-2.704.0067-1.011-.3887-1.978-1.0991-2.689ZM43.9643 113.25l-5.3572-5.357c-.7104-.711-1.6776-1.106-2.689-1.099-1.0113.007-1.9839.415-2.7038 1.135l-5.4286 5.428c-.7199.72-1.128 1.693-1.1347 2.704-.0067 1.011.3886 1.979 1.099 2.689l5.3571 5.357c.7104.711 1.6777 1.106 2.6891 1.099 1.0113-.007 1.9839-.415 2.7038-1.135l5.4286-5.428c.7198-.72 1.128-1.693 1.1347-2.704.0067-1.011-.3886-1.979-1.099-2.689Zm32.1428 32.143-5.3571-5.357c-.7104-.711-1.6777-1.106-2.689-1.099-1.0114.006-1.984.415-2.7039 1.134l-5.4285 5.429c-.7199.72-1.1281 1.692-1.1348 2.704-.0067 1.011.3887 1.978 1.0991 2.689l5.3571 5.357c.7104.71 1.6777 1.106 2.689 1.099 1.0114-.007 1.984-.415 2.7039-1.135l5.4285-5.428c.7199-.72 1.1281-1.693 1.1348-2.704.0067-1.011-.3887-1.979-1.0991-2.689Zm48.6429-16.5-5.357-5.357c-.711-.711-1.678-1.106-2.689-1.099-1.012.006-1.984.415-2.704 1.134L108.571 129c-.719.72-1.128 1.692-1.134 2.704-.007 1.011.388 1.978 1.099 2.689l5.357 5.357c.71.71 1.678 1.106 2.689 1.099 1.011-.007 1.984-.415 2.704-1.135l5.428-5.428c.72-.72 1.128-1.693 1.135-2.704.007-1.011-.389-1.979-1.099-2.689Zm-16.286 16.286-5.357-5.358c-.71-.71-1.678-1.105-2.689-1.099-1.0112.007-1.9838.415-2.7037 1.135l-5.4286 5.429c-.7199.72-1.128 1.692-1.1347 2.704-.0067 1.011.3886 1.978 1.099 2.689l5.3571 5.357c.7104.71 1.6777 1.105 2.6889 1.099 1.012-.007 1.984-.415 2.704-1.135l5.429-5.429c.719-.719 1.128-1.692 1.134-2.703.007-1.012-.388-1.979-1.099-2.689Zm-16.2854 16.285-5.3572-5.357c-.7104-.71-1.6776-1.106-2.689-1.099-1.0114.007-1.984.415-2.7038 1.135L76 161.571c-.7199.72-1.1281 1.693-1.1348 2.704-.0067 1.012.3887 1.979 1.0991 2.689l5.3571 5.357c.7104.711 1.6777 1.106 2.6891 1.099 1.0113-.006 1.9839-.414 2.7038-1.134l5.4286-5.429c.7198-.72 1.128-1.692 1.1347-2.704.0067-1.011-.3886-1.978-1.099-2.689Zm48.8574-48.857-5.357-5.357c-.711-.71-1.678-1.106-2.689-1.099-1.012.007-1.984.415-2.704 1.135l-5.429 5.428c-.72.72-1.128 1.693-1.135 2.704-.006 1.011.389 1.979 1.099 2.689l5.358 5.357c.71.711 1.677 1.106 2.689 1.099 1.011-.006 1.984-.415 2.703-1.134L141 118c.72-.72 1.128-1.692 1.135-2.704.006-1.011-.389-1.978-1.099-2.689Zm16.285-16.2856L90.3571 29.3571c-1.4208-1.4208-3.3553-2.2114-5.378-2.198-2.0227.0134-3.9679.8297-5.4077 2.2695L11.7143 97.2857c-.7199.7199-1.1281 1.6925-1.1348 2.7038-.0067 1.0115.3887 1.9785 1.0991 2.6895l5.3571 5.357c.7104.71 1.6777 1.105 2.689 1.099 1.0114-.007 1.984-.415 2.7039-1.135l62.4285-62.4286 61.6069 61.6076c.711.71 1.678 1.105 2.689 1.099 1.012-.007 1.984-.415 2.704-1.135l5.429-5.429c.72-.72 1.128-1.692 1.134-2.7035.007-1.0114-.388-1.9787-1.099-2.6891Z"/><defs><linearGradient id="b" x1="164.998" x2="4.99828" y1="-.00084686" y2="199.999" gradientUnits="userSpaceOnUse"><stop stop-color="#A12568"/><stop offset="1" stop-color="#A12568" stop-opacity="0"/></linearGradient><filter id="a" width="168" height="208" x=".998291" y="-.00085449" color-interpolation-filters="sRGB" filterUnits="userSpaceOnUse"><feFlood flood-opacity="0" result="BackgroundImageFix"/><feColorMatrix in="SourceAlpha" result="hardAlpha" values="0 0 0 0 0 0 0 0 0 0 0 0 0 0 0 0 0 0 127 0"/><feOffset dy="4"/><feGaussianBlur stdDeviation="2"/><feComposite in2="hardAlpha" operator="out"/><feColorMatrix values="0 0 0 0 0 0 0 0 0 0 0 0 0 0 0 0 0 0 0.25 0"/><feBlend in2="BackgroundImageFix" result="effect1_dropShadow"/><feBlend in="SourceGraphic" in2="effect1_dropShadow" result="shape"/></filter></defs></svg>