<svg xmlns="http://www.w3.org/2000/svg" fill="none" viewBox="0 0 169 208"><g filter="url(#a)"><rect width="160" height="200" x="4.99829" y="-.00085449" fill="#3B185F" rx="8"/><rect width="160" height="200" x="4.99829" y="-.00085449" fill="url(#b)" rx="8"/></g><path fill="#F5F5F5" fill-opacity=".08" d="M114.769 98.8013c12.064-16.7424 16.66-32.3726 10.239-38.7932-6.421-6.4207-22.051-1.825-38.7931 10.239l28.5541 28.5542ZM69.5211 84.5211c-3.5807 3.5806-6.8226 7.2097-9.7902 10.8549l29.8931 29.893c3.6452-2.968 7.2743-6.209 10.855-9.79 3.581-3.581 6.822-7.21 9.79-10.855L80.376 74.7309c-3.6452 2.9676-7.2743 6.2095-10.8549 9.7902Zm67.8649 36.8979c6.338-15.566 5.465-33.3741-2.65-48.328-1.515 9.3879-7.015 20.3078-14.772 30.905l17.422 17.423Zm-25.477-71.1552c-14.9378-8.0991-32.7623-8.9881-48.3116-2.6341l17.4229 17.4228c10.5809-7.7739 21.5007-13.2733 30.8887-14.7887Zm22.042 78.0422-18.503-18.504c-3.049 3.726-6.323 7.388-9.791 10.855-3.467 3.468-7.1287 6.742-10.8545 9.791l18.4875 18.487c4.194-2.419 8.129-5.354 11.71-8.935 3.581-3.581 6.516-7.516 8.951-11.694ZM64.3588 79.3587c3.4677-3.4677 7.129-6.7419 10.8549-9.7902L56.71 51.0648C52.5324 53.5001 48.5807 56.4193 45 60c-3.5806 3.5806-6.4999 7.5324-8.9352 11.7099l18.4876 18.4876c3.0645-3.7097 6.3386-7.371 9.8064-10.8388Zm-9.1117 21.8563c-12.064 16.742-16.6597 32.372-10.239 38.793 6.4206 6.421 22.0508 1.825 38.7932-10.239l-28.5542-28.554Zm2.8601 48.537c14.9378 8.099 32.7622 8.988 48.3278 2.651L89.012 134.98c-10.5971 7.757-21.517 13.257-30.9048 14.772ZM32.6297 78.5974c-6.3378 15.5654-5.465 33.3736 2.6503 48.3276 1.5153-9.388 7.0148-20.308 14.7725-30.9047L32.6297 78.5974Z"/><defs><linearGradient id="b" x1="164.998" x2="4.99828" y1="-.00084686" y2="199.999" gradientUnits="userSpaceOnUse"><stop stop-color="#A12568"/><stop offset="1" stop-color="#A12568" stop-opacity="0"/></linearGradient><filter id="a" width="168" height="208" x=".998291" y="-.00085449" color-interpolation-filters="sRGB" filterUnits="userSpaceOnUse"><feFlood flood-opacity="0" result="BackgroundImageFix"/><feColorMatrix in="SourceAlpha" result="hardAlpha" values="0 0 0 0 0 0 0 0 0 0 0 0 0 0 0 0 0 0 127 0"/><feOffset dy="4"/><feGaussianBlur stdDeviation="2"/><feComposite in2="hardAlpha" operator="out"/><feColorMatrix values="0 0 0 0 0 0 0 0 0 0 0 0 0 0 0 0 0 0 0.25 0"/><feBlend in2="BackgroundImageFix" result="effect1_dropShadow"/><feBlend in="SourceGraphic" in2="effect1_dropShadow" result="shape"/></filter></defs></svg>