<svg xmlns="http://www.w3.org/2000/svg" fill="none" viewBox="0 0 169 208">
  <g filter="url(#a)">
    <rect width="160" height="200" x="4.99829" y="-.00085449" fill="#3B185F" rx="8"/>
    <rect width="160" height="200" x="4.99829" y="-.00085449" fill="url(#b)" rx="8"/>
  </g>
  <path fill="#F5F5F5" fill-opacity=".08" d="M126.15 82.0252c-7.101-7.1011-8.11-18.8605-18.026-28.7765-4.524-4.524-9.5157-7.3379-14.2148-9.119 1.4413-.7991 2.7354-1.8818 3.7911-3.1719 3.4627-4.2187 3.7517-9.9706.6824-13.5402-3.7363-4.3456-10.8145-3.9858-15.4452.6449-2.9838 2.9838-4.1912 6.9827-3.5124 10.4499L11.1562 106.781c-1.48429 1.485-1.65218 3.723-.375 5l2.3125 2.313c1.2773 1.277 3.5157 1.109 5-.375l14.0159-14.0161c8.3752 2.5711 15.0958 5.5021 23.2715 13.6781 7.1011 7.101 8.1105 18.861 18.0265 28.777 8.452 8.452 18.5371 10.939 25.2947 11.863 3.4477.472 7.1637-.887 9.8847-3.608l40.299-40.299c5.788-5.788 4.606-14.7995-2.26-17.0796-7.791-2.5874-15.35-5.8832-20.476-11.0092ZM101.625 143.5c-5.7371-.56-14.166-3.416-20.1549-9.405-8.6639-8.664-9.3675-20.117-18.0265-28.776-6.267-6.2674-15.5092-12.3508-22.5061-14.444l38.9687-38.9687c5.7372.5597 14.166 3.4159 20.1548 9.4049 8.664 8.6639 9.368 20.1174 18.027 28.7765 6.254 6.254 16.838 11.0043 23.849 13.1003L101.625 143.5Z"/>
  <defs>
    <linearGradient id="b" x1="164.998" x2="4.99828" y1="-.00084686" y2="199.999" gradientUnits="userSpaceOnUse">
      <stop stop-color="#A12568"/>
      <stop offset="1" stop-color="#A12568" stop-opacity="0"/>
    </linearGradient>
    <filter id="a" width="168" height="208" x=".998291" y="-.00085449" color-interpolation-filters="sRGB" filterUnits="userSpaceOnUse">
      <feFlood flood-opacity="0" result="BackgroundImageFix"/>
      <feColorMatrix in="SourceAlpha" result="hardAlpha" values="0 0 0 0 0 0 0 0 0 0 0 0 0 0 0 0 0 0 127 0"/>
      <feOffset dy="4"/>
      <feGaussianBlur stdDeviation="2"/>
      <feComposite in2="hardAlpha" operator="out"/>
      <feColorMatrix values="0 0 0 0 0 0 0 0 0 0 0 0 0 0 0 0 0 0 0.25 0"/>
      <feBlend in2="BackgroundImageFix" result="effect1_dropShadow"/>
      <feBlend in="SourceGraphic" in2="effect1_dropShadow" result="shape"/>
    </filter>
  </defs>
</svg>
