<svg xmlns="http://www.w3.org/2000/svg" fill="none" viewBox="0 0 169 208"><g filter="url(#a)"><rect width="160" height="200" x="4.99829" y="-.00085449" fill="#3B185F" rx="8"/><rect width="160" height="200" x="4.99829" y="-.00085449" fill="url(#b)" rx="8"/></g><path fill="#F5F5F5" fill-opacity=".08" d="M143.581 75.9152c3.125.0131 5.669 2.5571 5.682 5.6821l.109 26.6717c.021 5.004-6.05 7.553-9.643 3.96l-6.693-6.693-9.76 9.759c-.273.273-.6.487-.96.628-.36.14-.746.205-1.134.19l-24.3692-.942-.7122-18.4203 18.2294.7048 5.313-5.3125-6.693-6.6933c-3.589-3.5889-1.05-9.6637 3.96-9.6429l26.671.1084ZM31.0993 127.115l13.9453-13.945 18.2297.704-.7122-18.42-24.369-.9422c-.3878-.015-.7739.0499-1.1342.1907-.3603.1407-.6873.3544-.9604.6276l-18.392 18.3919c-1.1002 1.1-1.0927 2.892.0167 4.001l9.375 9.375c1.1094 1.11 2.9009 1.117 4.0011.017Zm61.7578-61.7578 6.6937 6.6938c3.5922 3.5926 9.6642 1.0439 9.6432-3.9607l-.109-26.6714c-.013-3.1252-2.557-5.6692-5.682-5.6821l-26.6712-.1085c-5.0107-.0209-7.5496 6.054-3.9609 9.6428l6.6933 6.6933-9.7592 9.7592c-.2732.2732-.4868.6001-.6275.9605-.1408.3603-.2057.7463-.1908 1.1341l2.9437 76.1368-13.9453 13.946c-1.1002 1.1-1.0927 2.891.0167 4.001l9.375 9.375c1.1094 1.109 2.9009 1.117 4.0011.017l18.392-18.392c.5522-.553.8484-1.311.8183-2.095l-2.9436-76.1373 5.3125-5.3125Z"/><defs><linearGradient id="b" x1="164.998" x2="4.99828" y1="-.00084686" y2="199.999" gradientUnits="userSpaceOnUse"><stop stop-color="#A12568"/><stop offset="1" stop-color="#A12568" stop-opacity="0"/></linearGradient><filter id="a" width="168" height="208" x=".998291" y="-.00085449" color-interpolation-filters="sRGB" filterUnits="userSpaceOnUse"><feFlood flood-opacity="0" result="BackgroundImageFix"/><feColorMatrix in="SourceAlpha" result="hardAlpha" values="0 0 0 0 0 0 0 0 0 0 0 0 0 0 0 0 0 0 127 0"/><feOffset dy="4"/><feGaussianBlur stdDeviation="2"/><feComposite in2="hardAlpha" operator="out"/><feColorMatrix values="0 0 0 0 0 0 0 0 0 0 0 0 0 0 0 0 0 0 0.25 0"/><feBlend in2="BackgroundImageFix" result="effect1_dropShadow"/><feBlend in="SourceGraphic" in2="effect1_dropShadow" result="shape"/></filter></defs></svg>