<svg xmlns="http://www.w3.org/2000/svg" fill="none" viewBox="0 0 169 208">
  <g filter="url(#a)">
    <rect width="160" height="200" x="4.99829" y="-.00085449" fill="#3B185F" rx="8"/>
    <rect width="160" height="200" x="4.99829" y="-.00085449" fill="url(#b)" rx="8"/>
  </g>
  <path fill="#F5F5F5" fill-opacity=".08" d="m152.649 86.649-11.394-11.3935c-.802-.8026-2.007-1.0632-3.101-.6674l-30.228 10.8956c-8.8326 3.7729-17.7881 8.3315-17.7881 8.3315l-.2268-.2268s4.5586-8.9555 8.3315-17.7883l10.8954-30.2279c.396-1.0937.135-2.2988-.667-3.1014l-11.3762-11.376c-1.5878-1.5878-4.3442-.8204-5.0464 1.3474L78.7055 73.7367 68.5333 63.5646c-1.1515-1.1516-3.0746-1.1129-4.2734.0859l-5.8125 5.8125c-1.1988 1.1988-1.2375 3.1219-.0859 4.2735l15.389 15.389-3.3023 10.2117-4.868 4.8678-18.8437-18.8435c-1.1516-1.1516-3.0746-1.1129-4.2735.0859l-5.8125 5.8125c-1.1988 1.1988-1.2375 3.1219-.0859 4.2734l18.8437 18.8437-16.7109 16.711c-1.1988 1.199-1.2375 3.122-.0859 4.273l9.7708 9.771c1.1516 1.152 3.0746 1.113 4.2734-.086l16.711-16.711 18.8437 18.844c1.1516 1.152 3.0746 1.113 4.2735-.086l5.8125-5.812c1.1988-1.199 1.2375-3.122.0859-4.274l-18.8438-18.843 4.868-4.868 10.2117-3.303 15.3888 15.389c1.152 1.152 3.075 1.113 4.274-.086l5.812-5.812c1.199-1.199 1.238-3.122.086-4.274l-10.172-10.172 41.295-13.3427c2.185-.6847 2.935-3.4586 1.347-5.0463Z"/>
  <defs>
    <linearGradient id="b" x1="164.998" x2="4.99828" y1="-.00084686" y2="199.999" gradientUnits="userSpaceOnUse">
      <stop stop-color="#A12568"/>
      <stop offset="1" stop-color="#A12568" stop-opacity="0"/>
    </linearGradient>
    <filter id="a" width="168" height="208" x=".998291" y="-.00085449" color-interpolation-filters="sRGB" filterUnits="userSpaceOnUse">
      <feFlood flood-opacity="0" result="BackgroundImageFix"/>
      <feColorMatrix in="SourceAlpha" result="hardAlpha" values="0 0 0 0 0 0 0 0 0 0 0 0 0 0 0 0 0 0 127 0"/>
      <feOffset dy="4"/>
      <feGaussianBlur stdDeviation="2"/>
      <feComposite in2="hardAlpha" operator="out"/>
      <feColorMatrix values="0 0 0 0 0 0 0 0 0 0 0 0 0 0 0 0 0 0 0.25 0"/>
      <feBlend in2="BackgroundImageFix" result="effect1_dropShadow"/>
      <feBlend in="SourceGraphic" in2="effect1_dropShadow" result="shape"/>
    </filter>
  </defs>
</svg>
