<svg width="169" height="208" viewBox="0 0 169 208" fill="none" xmlns="http://www.w3.org/2000/svg">
<g filter="url(#filter0_d)">
<rect x="4.99829" y="-0.000854492" width="160" height="200" rx="8" fill="#3B185F"/>
<rect x="4.99829" y="-0.000854492" width="160" height="200" rx="8" fill="url(#paint0_linear)"/>
</g>
<path d="M148.393 119.107L145.625 121.875C145.258 122.242 144.761 122.449 144.244 122.451C143.726 122.453 143.231 122.249 142.866 121.884L138.741 117.759L136.665 119.835C135.519 120.981 133.666 120.987 132.527 119.848L65.1517 52.4733C64.0127 51.3342 64.0187 49.4813 65.1651 48.3349L67.241 46.259L63.116 42.134C62.7514 41.7693 62.5474 41.2738 62.5491 40.7564C62.5508 40.239 62.7579 39.7421 63.125 39.375L65.8928 36.6072C66.1666 36.3334 66.5149 36.1464 66.8937 36.07C67.2725 35.9935 67.6648 36.031 68.0208 36.1777L123.119 60.8295C123.596 61.0258 123.974 61.4041 124.171 61.881L148.822 116.979C148.969 117.335 149.007 117.728 148.93 118.106C148.854 118.485 148.667 118.833 148.393 119.107V119.107ZM91.6786 167.572L17.4285 93.3215C15.1503 91.0433 11.4447 91.0553 9.15174 93.3483L6.38388 96.1161C6.01684 96.4832 5.8097 96.98 5.80802 97.4974C5.80635 98.0148 6.01028 98.5104 6.37495 98.875L86.125 178.625C86.4897 178.99 86.9852 179.194 87.5026 179.192C88.02 179.19 88.5169 178.983 88.8839 178.616L91.6518 175.848C93.9448 173.555 93.9568 169.85 91.6786 167.572ZM68.5714 61.4286L35.3571 94.6429L29.1696 88.4554C28.0306 87.3164 26.1776 87.3224 25.0312 88.4688L21.5714 91.9286L93.0714 163.429L96.5312 159.969C97.6777 158.822 97.6836 156.969 96.5446 155.83L90.3571 149.643L123.571 116.429L112.571 105.429L79.3571 138.643L68.3571 127.643L101.571 94.4286L90.5714 83.4286L57.3571 116.643L46.3571 105.643L79.5714 72.4286L68.5714 61.4286Z" fill="#F5F5F5" fill-opacity="0.08"/>
<defs>
<filter id="filter0_d" x="0.998291" y="-0.000854492" width="168" height="208" filterUnits="userSpaceOnUse" color-interpolation-filters="sRGB">
<feFlood flood-opacity="0" result="BackgroundImageFix"/>
<feColorMatrix in="SourceAlpha" type="matrix" values="0 0 0 0 0 0 0 0 0 0 0 0 0 0 0 0 0 0 127 0" result="hardAlpha"/>
<feOffset dy="4"/>
<feGaussianBlur stdDeviation="2"/>
<feComposite in2="hardAlpha" operator="out"/>
<feColorMatrix type="matrix" values="0 0 0 0 0 0 0 0 0 0 0 0 0 0 0 0 0 0 0.25 0"/>
<feBlend mode="normal" in2="BackgroundImageFix" result="effect1_dropShadow"/>
<feBlend mode="normal" in="SourceGraphic" in2="effect1_dropShadow" result="shape"/>
</filter>
<linearGradient id="paint0_linear" x1="164.998" y1="-0.000846863" x2="4.99828" y2="199.999" gradientUnits="userSpaceOnUse">
<stop stop-color="#A12568"/>
<stop offset="1" stop-color="#A12568" stop-opacity="0"/>
</linearGradient>
</defs>
</svg>
