<svg xmlns="http://www.w3.org/2000/svg" fill="none" viewBox="0 0 160 200">
  <g filter="url(#a)">
    <rect width="160" height="200" x="-.00170898" y="-.00085449" fill="#3B185F" rx="8"/>
    <rect width="160" height="200" x="-.00170898" y="-.00085449" fill="url(#b)" rx="8"/>
  </g>
  <g clip-path="url(#c)">
    <path fill="#F5F5F5" fill-opacity=".08" d="m52.6396 133.249-6.0609-6.061c-.8038-.804-1.8938-1.255-3.0305-1.255-1.1366 0-2.2267.451-3.0305 1.255l-6.0609 6.061c-.8037.803-1.2552 1.894-1.2552 3.03 0 1.137.4515 2.227 1.2552 3.031l6.0609 6.061c.8038.803 1.8939 1.255 3.0305 1.255s2.2267-.452 3.0305-1.255l6.0609-6.061c.8037-.804 1.2552-1.894 1.2552-3.031 0-1.136-.4515-2.227-1.2552-3.03Zm-18.1828-18.183-6.0609-6.061c-.8037-.804-1.8938-1.255-3.0304-1.255-1.1367 0-2.2268.451-3.0305 1.255l-6.0609 6.061c-.8037.804-1.2553 1.894-1.2553 3.03 0 1.137.4516 2.227 1.2553 3.031l6.0609 6.061c.8037.804 1.8938 1.255 3.0305 1.255 1.1366 0 2.2267-.451 3.0304-1.255l6.0609-6.061c.8038-.804 1.2553-1.894 1.2553-3.031 0-1.136-.4515-2.226-1.2553-3.03Zm36.3655 36.366-6.0609-6.061c-.8037-.804-1.8938-1.256-3.0304-1.256-1.1367 0-2.2268.452-3.0305 1.256l-6.0609 6.06c-.8037.804-1.2553 1.894-1.2553 3.031 0 1.137.4515 2.227 1.2553 3.03l6.0609 6.061c.8037.804 1.8938 1.256 3.0305 1.256 1.1366 0 2.2267-.452 3.0304-1.256l6.0609-6.061c.8038-.803 1.2553-1.893 1.2553-3.03 0-1.137-.4515-2.227-1.2553-3.03Zm54.5487-18.183-6.061-6.061c-.804-.804-1.894-1.255-3.031-1.255-1.136 0-2.227.451-3.03 1.255l-6.061 6.061c-.804.803-1.255 1.894-1.255 3.03 0 1.137.451 2.227 1.255 3.031l6.061 6.061c.803.803 1.894 1.255 3.03 1.255 1.137 0 2.227-.452 3.031-1.255l6.061-6.061c.803-.804 1.255-1.894 1.255-3.031 0-1.136-.452-2.227-1.255-3.03Zm-18.183 18.182-6.061-6.06c-.804-.804-1.8939-1.256-3.0306-1.256-1.1366 0-2.2267.452-3.0304 1.256l-6.0609 6.061c-.8038.803-1.2553 1.893-1.2553 3.03 0 1.137.4515 2.227 1.2553 3.03l6.0609 6.061c.8037.804 1.8938 1.256 3.0304 1.256 1.1367 0 2.2266-.452 3.0306-1.256l6.061-6.061c.804-.803 1.255-1.893 1.255-3.03 0-1.137-.451-2.227-1.255-3.031Zm-18.1829 18.183-6.0609-6.061c-.8038-.803-1.8939-1.255-3.0305-1.255s-2.2267.452-3.0305 1.255l-6.0609 6.061c-.8037.804-1.2552 1.894-1.2552 3.031 0 1.136.4515 2.226 1.2552 3.03l6.0609 6.061c.8038.804 1.8939 1.255 3.0305 1.255s2.2267-.451 3.0305-1.255l6.0609-6.061c.8037-.804 1.2552-1.894 1.2552-3.03 0-1.137-.4515-2.227-1.2552-3.031Zm54.5479-54.548-6.061-6.061c-.803-.804-1.893-1.255-3.03-1.255-1.137 0-2.227.451-3.031 1.255l-6.06 6.061c-.804.804-1.256 1.894-1.256 3.03 0 1.137.452 2.227 1.256 3.031l6.06 6.061c.804.804 1.894 1.255 3.031 1.255 1.137 0 2.227-.451 3.03-1.255l6.061-6.061c.804-.804 1.256-1.894 1.256-3.031 0-1.136-.452-2.226-1.256-3.03Zm18.183-18.1827L85.9746 21.1218c-1.6074-1.6074-3.7876-2.5105-6.0609-2.5105-2.2733 0-4.4535.9031-6.0609 2.5105L-1.90865 96.8833c-.80373.8037-1.25527 1.8938-1.25527 3.0304.00001 1.1363.45153 2.2263 1.25526 3.0303l6.06092 6.061c.80372.804 1.89381 1.255 3.03045 1.255 1.13665 0 2.22674-.451 3.03049-1.255l69.7005-69.7004 69.7003 69.7004c.804.804 1.894 1.255 3.031 1.255 1.136 0 2.226-.451 3.03-1.255l6.061-6.061c.804-.804 1.255-1.894 1.255-3.0303 0-1.1366-.451-2.2267-1.255-3.0304Z"/>
  </g>
  <rect width="188.143" height="188.143" x="136.912" y="131.032" fill="url(#d)" fill-opacity=".16" rx="40" transform="rotate(-125 136.912 131.032)"/>
  <rect width="188.143" height="188.143" x="131.032" y="176.914" fill="url(#e)" fill-opacity=".16" rx="40" transform="rotate(125 131.032 176.914)"/>
  <defs>
    <linearGradient id="b" x1="159.998" x2="-.00171524" y1="-.00084686" y2="199.999" gradientUnits="userSpaceOnUse">
      <stop stop-color="#A12568"/>
      <stop offset="1" stop-color="#A12568" stop-opacity="0"/>
    </linearGradient>
    <linearGradient id="d" x1="279.454" x2="230.984" y1="-296.783" y2="319.176" gradientUnits="userSpaceOnUse">
      <stop stop-color="#fff"/>
      <stop offset="1" stop-color="#fff" stop-opacity="0"/>
    </linearGradient>
    <linearGradient id="e" x1="273.574" x2="225.104" y1="-250.901" y2="365.058" gradientUnits="userSpaceOnUse">
      <stop stop-color="#fff"/>
      <stop offset="1" stop-color="#fff" stop-opacity="0"/>
    </linearGradient>
    <clipPath id="c">
      <path fill="#fff" d="M0 0h120v137.143H0z" transform="rotate(45 32.12333897 108.28052267)"/>
    </clipPath>
    <filter id="a" width="168" height="208" x="-4.00171" y="-.00085449" color-interpolation-filters="sRGB" filterUnits="userSpaceOnUse">
      <feFlood flood-opacity="0" result="BackgroundImageFix"/>
      <feColorMatrix in="SourceAlpha" result="hardAlpha" values="0 0 0 0 0 0 0 0 0 0 0 0 0 0 0 0 0 0 127 0"/>
      <feOffset dy="4"/>
      <feGaussianBlur stdDeviation="2"/>
      <feComposite in2="hardAlpha" operator="out"/>
      <feColorMatrix values="0 0 0 0 0 0 0 0 0 0 0 0 0 0 0 0 0 0 0.25 0"/>
      <feBlend in2="BackgroundImageFix" result="effect1_dropShadow"/>
      <feBlend in="SourceGraphic" in2="effect1_dropShadow" result="shape"/>
    </filter>
  </defs>
</svg>
