<svg xmlns="http://www.w3.org/2000/svg" viewBox="0 0 22 22"><path d="m20.1521 13.3612-1.6849-.973c.1701-.9176.1701-1.8589 0-2.77644l1.6849-.97295c.1938-.11075.2808-.34014.2175-.55371-.439-1.40801-1.1865-2.68155-2.1634-3.74151-.1503-.16216-.3955-.20171-.5854-.09096l-1.6848.97294c-.708-.60908-1.5228-1.07973-2.4047-1.38823V1.8954c0-.22149-.1543-.41528-.3718-.46275-1.4515-.32431-2.9386-.30849-4.31896 0-.21753.04747-.37177.24126-.37177.46275v1.9459c-.87803.31245-1.69278.7831-2.40469 1.38823l-1.68091-.97295c-.1938-.11074-.43506-.07515-.58535.09097-.97691 1.056-1.72442 2.32954-2.16343 3.7415-.06724.21357.02373.44297.21753.55371l1.68486.97295c-.17006.91759-.17006 1.85889 0 2.77649l-1.68486.9729c-.1938.1108-.28081.3402-.21753.5537.43901 1.408 1.18652 2.6816 2.16343 3.7415.15029.1622.39551.2017.58535.091l1.68486-.9729c.70796.609 1.52271 1.0797 2.40469 1.3882v1.9459c0 .2215.15425.4153.37178.4627 1.4515.3243 2.9386.3085 4.3189 0 .2176-.0474.3718-.2412.3718-.4627v-1.9459c.878-.3125 1.6928-.7831 2.4047-1.3882l1.6849.9729c.1938.1107.435.0752.5853-.091.9769-1.056 1.7244-2.3295 2.1635-3.7415.0593-.2175-.0277-.4469-.2215-.5576ZM11 14.1641c-1.74417 0-3.16405-1.4199-3.16405-3.1641S9.25583 7.83593 11 7.83593c1.7442 0 3.1641 1.41987 3.1641 3.16407 0 1.7442-1.4199 3.1641-3.1641 3.1641Z"/></svg>