<svg xmlns="http://www.w3.org/2000/svg" viewBox="0 0 18 22"><g clip-path="url(#a)"><path d="M0 9.73438h7.59375V2.14062H0v7.59376Zm2.53125-5.0625H5.0625v2.53124H2.53125V4.67188ZM10.125 2.14062v7.59376h7.5938V2.14062H10.125Zm5.0625 5.0625h-2.5313V4.67188h2.5313v2.53124ZM0 19.8594h7.59375v-7.5938H0v7.5938Zm2.53125-5.0625H5.0625v2.5312H2.53125v-2.5312Zm13.92185-2.5313h1.2657v5.0625h-3.7969v-1.2656h-1.2657v3.7969H10.125v-7.5938h3.7969v1.2656h2.5312v-1.2656Zm0 6.3282h1.2657v1.2656h-1.2657v-1.2656Zm-2.5312 0h1.2656v1.2656h-1.2656v-1.2656Z"/></g><defs><clipPath id="a"><path fill="#fff" d="M0 0h17.7188v20.25H0z" transform="translate(0 .875)"/></clipPath></defs></svg>