<svg xmlns="http://www.w3.org/2000/svg" viewBox="0 0 15 20"><path d="M7.89151 0C4.77358 0 2.75409 1.27746 1.16858 3.5557c-.287619.41328-.198947.97993.20226 1.28414l1.68508 1.2777c.4052.30723.98172.23539 1.29895-.16203.97847-1.22582 1.70429-1.9316 3.23269-1.9316 1.20172 0 2.68814.77339 2.68814 1.93871 0 .88093-.72724 1.33336-1.9138 1.99859-1.38371.77578-3.21481 1.74125-3.21481 4.15649V12.5c0 .5178.41973.9375.9375.9375h2.8309c.51778 0 .9375-.4197.9375-.9375v-.2255c0-1.6742 4.89331-1.744 4.89331-6.2745 0-3.41187-3.5391-6-6.85479-6Zm-.39145 14.5882c-1.49203 0-2.7059 1.2139-2.7059 2.7059 0 1.492 1.21387 2.7059 2.7059 2.7059 1.49203 0 2.70594-1.2139 2.70594-2.7059 0-1.492-1.21391-2.7059-2.70594-2.7059Z"/></svg>