<svg xmlns="http://www.w3.org/2000/svg" viewBox="0 0 14 20"><g clip-path="url(#a)"><path d="m9.48125 10 3.90895-3.90898c.4797-.47969.4797-1.25743 0-1.7375l-.8687-.86875c-.4797-.47969-1.2574-.47969-1.7375 0L6.875 7.39375 2.96602 3.48477c-.47969-.47969-1.25743-.47969-1.7375 0l-.868754.86875c-.479688.47968-.479688 1.25742 0 1.7375L4.26875 10 .359766 13.909c-.479688.4797-.479688 1.2574 0 1.7375l.868754.8687c.47968.4797 1.25781.4797 1.7375 0l3.90898-3.909 3.909 3.909c.4797.4797 1.2578.4797 1.7375 0l.8687-.8687c.4797-.4797.4797-1.2574 0-1.7375L9.48125 10Z"/></g><defs><clipPath id="a"><path fill="#fff" d="M0 0h13.75v20H0z"/></clipPath></defs></svg>