<svg xmlns="http://www.w3.org/2000/svg" viewBox="0 0 18 22"><g clip-path="url(#a)"><path d="M12.4031 12.8984c-1.1351 0-1.6809.6328-3.54372.6328-1.86285 0-2.40469-.6328-3.54376-.6328C2.38096 12.8984 0 15.2794 0 18.2141v1.0125c0 1.0481.850342 1.8984 1.89844 1.8984H15.8203c1.0481 0 1.8985-.8503 1.8985-1.8984v-1.0125c0-2.9347-2.381-5.3157-5.3157-5.3157Zm3.4172 6.3282H1.89844v-1.0125c0-1.8827 1.53457-3.4172 3.41718-3.4172.57745 0 1.5148.6328 3.54376.6328 2.04482 0 2.96232-.6328 3.54372-.6328 1.8826 0 3.4172 1.5345 3.4172 3.4172v1.0125Zm-6.96092-6.961c3.14432 0 5.69532-2.551 5.69532-5.69529 0-3.14428-2.551-5.69531-5.69532-5.69531-3.14429 0-5.69532 2.55103-5.69532 5.69531 0 3.14429 2.55103 5.69529 5.69532 5.69529Zm0-9.49216c2.09222 0 3.79682 1.70464 3.79682 3.79687 0 2.09224-1.7046 3.79689-3.79682 3.79689-2.09224 0-3.79688-1.70465-3.79688-3.79689 0-2.09223 1.70464-3.79687 3.79688-3.79687Z"/></g><defs><clipPath id="a"><path fill="#fff" d="M0 0h17.7188v20.25H0z" transform="translate(0 .875)"/></clipPath></defs></svg>